<svg width="78" height="25" fill="none" xmlns="http://www.w3.org/2000/svg"><g clip-path="url(#a)" fill="#ABABAB"><path d="M8.9 19.65c-3.9 0-5.84-1.93-5.84-5.78v-6.4H1.5c-1 0-1.5-.48-1.5-1.42s.5-1.42 1.5-1.42h1.56V1.9A1.88 1.88 0 0 1 6.27.57c.35.35.55.83.55 1.33v2.73H10c1 0 1.5.48 1.5 1.42S11 7.46 10 7.46H6.82v6.2c-.06.78.17 1.55.63 2.17a2.6 2.6 0 0 0 2.04.75c.3 0 .6-.03.9-.09.23-.06.46-.1.7-.12a.7.7 0 0 1 .6.23c.2.3.28.67.24 1.03 0 .37-.06.73-.2 1.07a1.16 1.16 0 0 1-.7.65 7.21 7.21 0 0 1-2.13.3ZM17.36 25a1.5 1.5 0 0 1-1.41-.74 1.94 1.94 0 0 1 0-1.72l1.7-3.76-5.13-11.86a1.92 1.92 0 0 1 0-1.74 1.73 1.73 0 0 1 1.65-.76c.4-.02.79.1 1.11.32.36.32.62.73.76 1.19l3.6 9.03 3.7-9.03c.13-.45.4-.85.75-1.16.36-.23.77-.34 1.2-.32a1.4 1.4 0 0 1 1.35.76 1.91 1.91 0 0 1 0 1.71l-7.3 16.7c-.17.45-.46.85-.84 1.15-.35.18-.75.27-1.14.24ZM29.8 25a1.66 1.66 0 0 1-1.87-1.89V6.3a1.85 1.85 0 0 1 3.56-.7c.09.22.14.46.14.7v.63a4.7 4.7 0 0 1 1.9-1.88 5.77 5.77 0 0 1 2.87-.7c1.2-.03 2.37.3 3.38.93a6.23 6.23 0 0 1 2.26 2.63 9.5 9.5 0 0 1 .8 4.08c.04 1.4-.24 2.8-.8 4.07a6.26 6.26 0 0 1-2.26 2.67c-1.01.63-2.2.96-3.39.93a5.77 5.77 0 0 1-2.8-.68 4.74 4.74 0 0 1-1.92-1.82v5.96a1.68 1.68 0 0 1-1.87 1.9Zm5.55-8.2a3.36 3.36 0 0 0 2.7-1.23 5.5 5.5 0 0 0 1.03-3.6 5.43 5.43 0 0 0-1.02-3.59 3.67 3.67 0 0 0-5.41 0 5.4 5.4 0 0 0-1.02 3.6 5.46 5.46 0 0 0 1.02 3.6 3.34 3.34 0 0 0 2.7 1.21ZM52.16 19.65a9.29 9.29 0 0 1-4.3-.93 6.61 6.61 0 0 1-2.78-2.65 8.05 8.05 0 0 1-.98-4.06c-.03-1.4.3-2.77.95-4a6.98 6.98 0 0 1 2.61-2.7c1.16-.66 2.47-1 3.8-.98a6.37 6.37 0 0 1 4.95 1.99 7.73 7.73 0 0 1 1.8 5.42c0 .75-.47 1.11-1.44 1.11h-9.06c.27 2.63 1.78 3.94 4.5 3.94.6 0 1.18-.07 1.76-.2a6.64 6.64 0 0 0 1.84-.67 1.69 1.69 0 0 1 1.32-.29 1.16 1.16 0 0 1 .76.65c.15.34.17.72.06 1.07-.15.43-.45.8-.86 1-.75.47-1.56.8-2.42.98-.82.2-1.67.31-2.52.32ZM51.6 6.86a3.6 3.6 0 0 0-2.67 1.02 4.52 4.52 0 0 0-1.23 2.77h7.4c0-1.02-.35-2.02-1-2.81a3.15 3.15 0 0 0-2.5-.95v-.03ZM76.5 22.18H59.72c-1 0-1.5.47-1.5 1.41 0 .95.5 1.42 1.5 1.42H76.5c1 0 1.5-.48 1.5-1.42s-.5-1.41-1.5-1.41Z"/></g><defs><clipPath id="a"><path fill="#fff" d="M0 0h78v25H0z"/></clipPath></defs></svg>